<svg xmlns="http://www.w3.org/2000/svg" width="360" height="360"><path fill="#FDFDFD" d="M0 0h360v360H0z" id="svg-layer-0" style="pointer-events: all;"/><path fill="#0ADCBF" d="m42.302 69.873 2.583-.009 2.809.007 19.482-.007q7.084-.001 14.168.006 9.096.006 18.193-.004 6.98-.004 13.959 0 3.354 0 6.71-.002 4.68-.003 9.359.007l2.821-.007 2.566.009 2.236.001C139 70 139 70 141 71c-1.5 11.845-3.769 23.499-6.098 35.203l-1.195 6.046a11932 11932 0 0 1-2.493 12.577q-1.603 8.07-3.195 16.14-1.228 6.221-2.463 12.44l-1.178 5.958q-.818 4.14-1.644 8.278l-.49 2.49c-1.13 5.64-1.13 5.64-2.244 7.868l119-1c-10-51.313-10-51.313-13.164-67.525l-1.863-9.577q-.623-3.204-1.25-6.407a7409 7409 0 0 1-1.887-9.695l-.568-2.892-.509-2.633-.447-2.293C219 74 219 74 219 71c2.277-1.138 3.52-1.126 6.048-1.127l2.566-.009 2.821.007 2.967-.006q4.873-.004 9.746.002l6.756-.003q7.09-.001 14.179.006 9.093.006 18.186-.004 6.98-.004 13.959 0 3.353 0 6.705-.002 4.687-.003 9.373.007l2.809-.007 4.821.01C322 70 322 70 326 71v218c-3.31.828-5.583 1.125-8.916 1.126l-3.015.008-3.305-.007-3.516.005q-4.832.004-9.664-.001-5.21-.003-10.421.004-10.209.005-20.416 0-8.295-.003-16.59-.001h-2.384l-4.793.001q-22.482.004-44.964-.006-19.297-.005-38.596.001a79446 79446 0 0 1-49.577.004h-2.373q-8.288-.002-16.574.002-10.095.005-20.192-.003-5.154-.005-10.306 0-5.582.002-11.162-.006l-3.305.007-3.015-.008h-2.603C38 290 38 290 34 289V71c3.129-.782 5.185-1.125 8.302-1.127" id="svg-layer-1" style="pointer-events: all;"/><path d="m42.302 69.873 2.583-.009 2.809.007 19.482-.007q7.084-.001 14.168.006 9.096.006 18.193-.004 6.98-.004 13.959 0 3.354 0 6.71-.002 4.68-.003 9.359.007l2.821-.007 2.566.009 2.236.001C139 70 139 70 141 71c-1.5 11.845-3.769 23.499-6.098 35.203l-1.195 6.046a11932 11932 0 0 1-2.493 12.577q-1.603 8.07-3.195 16.14-1.228 6.221-2.463 12.44l-1.178 5.958q-.818 4.14-1.644 8.278l-.49 2.49c-1.13 5.64-1.13 5.64-2.244 7.868l119-1c-10-51.313-10-51.313-13.164-67.525l-1.863-9.577q-.623-3.204-1.25-6.407a7409 7409 0 0 1-1.887-9.695l-.568-2.892-.509-2.633-.447-2.293C219 74 219 74 219 71c2.277-1.138 3.52-1.126 6.048-1.127l2.566-.009 2.821.007 2.967-.006q4.873-.004 9.746.002l6.756-.003q7.09-.001 14.179.006 9.093.006 18.186-.004 6.98-.004 13.959 0 3.353 0 6.705-.002 4.687-.003 9.373.007l2.809-.007 4.821.01C322 70 322 70 326 71v218c-3.31.828-5.583 1.125-8.916 1.126l-3.015.008-3.305-.007-3.516.005q-4.832.004-9.664-.001-5.21-.003-10.421.004-10.209.005-20.416 0-8.295-.003-16.59-.001h-2.384l-4.793.001q-22.482.004-44.964-.006-19.297-.005-38.596.001a79446 79446 0 0 1-49.577.004h-2.373q-8.288-.002-16.574.002-10.095.005-20.192-.003-5.154-.005-10.306 0-5.582.002-11.162-.006l-3.305.007-3.015-.008h-2.603C38 290 38 290 34 289V71c3.129-.782 5.185-1.125 8.302-1.127M37 74v212h286V74H223c2.25 14.625 2.25 14.625 3.237 19.525l.667 3.333.698 3.443.73 3.643q1.144 5.686 2.293 11.368l1.563 7.772q1.9 9.459 3.812 18.916l2.797-1.465c3.94-1.888 5.867-2.185 10.203-1.535 8.957 3.944 15.591 10.03 19.438 19.063 3.634 11.28 2.323 22.957-2.657 33.523-5.524 10.22-14.299 15.804-25.219 19.164-7.18.7-13.091.93-19.562-2.75-4.177-3.512-5.446-5.892-8-11l-1-15h-39l5 5c4.978 6.445 7.584 13.451 7.309 21.672-1.275 9.618-4.633 17.332-11.309 24.328l-1.89 2.047C161.3 245.69 145.024 252.117 130 253l-3.043.195c-18.587.63-36.022-5.83-49.957-18.195l-1.785-1.504c-13.302-12.09-20.34-30.394-21.434-48.02-.49-19.785 5.971-38.938 19.387-53.734C89.494 116.217 108.205 111.195 130 109c2.236-7.234 3.77-14.571 5.188-22l.541-2.825C137 77.391 137 77.391 137 74z" id="svg-layer-2" style="pointer-events: all;"/><path fill="#FDB728" d="M129 112c-.46 10.222-2.783 20.049-5 30l-1.871.445c-10.18 2.697-16.905 7.067-22.692 15.961-6.529 11.782-7.156 25.848-3.542 38.672 3.52 9.303 9.503 17.546 18.668 21.797 7.662 2.47 16.519 2.45 23.874-.875 8.62-5.058 13.36-12.698 16.563-22 1.182-4.638 2.154-9.29 3-14 7.217-.208 11.645.909 16.992 5.836 6.451 6.986 7.496 13.247 7.309 22.633-.977 11.47-7.729 18.644-16.098 25.984-6.911 5.522-13.79 8.899-22.203 11.547l-2.035.707c-16.27 4.97-33.648 2.206-48.44-5.521C88.25 240.287 83.466 237.054 79 233l-2.07-1.828C65.36 220.35 57.3 204.388 56.664 188.46 56.342 166.95 60.758 149.16 76 133c11.066-10.813 24.758-17.571 40-20l2.406-.39c3.55-.504 7.015-.64 10.594-.61" id="svg-layer-3" style="pointer-events: all;"/><path fill="#FC544D" d="M122 145c1.275 3.824.602 6.02-.18 9.969l-.4 2.05q-.421 2.145-.853 4.287-.658 3.276-1.297 6.557C117.177 178.47 117.177 178.47 116 182h39c-2.136 12.815-4.772 23.315-15.086 31.676-5.768 3.99-11.986 5.333-18.914 4.324-8.533-2.199-14.077-6.274-18.691-13.734-6.129-11.4-7.81-22.576-4.555-35.188 3.166-9.59 8.44-16.94 17.246-22.078 2.355-.926 4.51-1.481 7-2M246.313 140.813c4.804 1.547 7.958 3.84 11.687 7.187l1.957 1.754c6.107 6.158 7.974 13.72 8.418 22.246-.558 11.18-4.473 20.735-12.75 28.313-7.063 5.591-15.604 9.286-24.75 8.562-5.817-1.313-9.49-3.09-13.25-7.937C213.747 193.927 215 191.892 215 182h29l-3.2-15.346-.609-2.916-.618-2.967L239 158l-.551-2.64c-.625-3.288-.807-6.019-.449-9.36 2.544-3.7 3.782-4.931 8.313-5.187" id="svg-layer-4" style="pointer-events: all;"/></svg>